<?xml version="1.0" encoding="utf-8"?>
<!-- Generator: Adobe Illustrator 19.2.1, SVG Export Plug-In . SVG Version: 6.00 Build 0)  -->
<svg version="1.1" id="Layer_1" xmlns="http://www.w3.org/2000/svg" xmlns:xlink="http://www.w3.org/1999/xlink" x="0px" y="0px"
	 viewBox="0 0 40 40" style="enable-background:new 0 0 40 40;" xml:space="preserve">
<style type="text/css">
	.st0{fill:#FFFFFF;}
</style>
<path class="st0" d="M20,32.3c-6.8,0-12.3-5.5-12.3-12.3c0-0.5-0.4-0.9-0.9-0.9S5.9,19.5,5.9,20c0,7.8,6.3,14.1,14.1,14.1
	c0,0,0,0,0,0c0.5,0,0.9-0.4,0.9-0.9C20.9,32.7,20.5,32.3,20,32.3z"/>
<path class="st0" d="M20,5.9c-0.5,0-0.9,0.4-0.9,0.9s0.4,0.9,0.9,0.9c6.5,0,11.8,5.1,12.3,12c0,0.5,0.4,0.8,0.9,0.8c0,0,0,0,0.1,0
	c0.5,0,0.9-0.5,0.8-0.9C33.5,11.7,27.5,5.9,20,5.9z"/>
<path class="st0" d="M20,27.5c-4.1,0-7.5-3.4-7.5-7.5c0-0.5-0.4-0.9-0.9-0.9c-0.5,0-0.9,0.4-0.9,0.9c0,5.1,4.1,9.2,9.2,9.2
	c0,0,0,0,0,0c0.5,0,0.9-0.4,0.9-0.9C20.9,27.9,20.5,27.5,20,27.5z"/>
<path class="st0" d="M20,10.8c-0.5,0-0.9,0.4-0.9,0.9c0,0.5,0.4,0.9,0.9,0.9c4,0,7.3,3.3,7.5,7.5c0,0.5,0.4,0.8,0.9,0.8c0,0,0,0,0,0
	c0.5,0,0.9-0.4,0.8-0.9C29,14.8,25,10.8,20,10.8z"/>
<path class="st0" d="M20,15.6c-2.4,0-4.4,2-4.4,4.4c0,2.4,2,4.4,4.4,4.4c0,0,0,0,0,0c1.2,0,2.4-0.5,3.2-1.4c0.8-0.8,1.2-1.9,1.2-3.1
	C24.3,17.5,22.4,15.6,20,15.6z M22,21.8c-0.5,0.5-1.1,0.8-2,0.8v0.9l0-0.9c-1.5,0-2.6-1.2-2.6-2.6c0-1.5,1.2-2.6,2.6-2.6
	c1.4,0,2.6,1.2,2.6,2.7C22.7,20.7,22.4,21.3,22,21.8z"/>
<path class="st0" d="M20,1.5C10,1.5,1.5,10,1.5,20S10,38.5,20,38.5S38.5,30,38.5,20S30,1.5,20,1.5z M20,36.7
	c-9.1,0-16.7-7.7-16.7-16.7S10.9,3.3,20,3.3S36.7,10.9,36.7,20S29.1,36.7,20,36.7z"/>
</svg>
